<svg width="105" height="31" viewBox="0 0 105 31" fill="none" xmlns="http://www.w3.org/2000/svg">
<path d="M-0.000488281 11.0002V30.6264H14.9069V26.265H5.25731V11.0002H-0.000488281Z" fill="white"/>
<path d="M22.1927 18.0719L17.8009 11.0002H11.9554L19.4401 23.1809V30.6264H24.5432V23.1809L32.0279 11.0002H26.368L22.1927 18.0719Z" fill="white"/>
<path d="M38.5356 11.0002H33.5252V30.6264H38.35V19.0065L46.7625 30.6264H50.9687V11.0002H46.1439V21.8725L38.5356 11.0002Z" fill="white"/>
<path d="M62.6644 31.0002C67.6748 31.0002 71.5408 28.5703 71.5408 22.8383V11.0002H66.283V21.966C66.283 24.9566 65.3861 26.5454 62.6644 26.5454C59.9737 26.5454 59.0458 24.9566 59.0458 21.966V11.0002H53.819V22.8383C53.819 28.5703 57.6541 31.0002 62.6644 31.0002Z" fill="white"/>
<path d="M79.587 20.2526V15.237H82.6798C85.0304 15.237 85.9273 16.1093 85.9273 17.7604C85.9273 19.4115 85.0304 20.2526 82.6798 20.2526H79.587ZM79.587 24.4893H82.9273C88.0304 24.4893 90.9995 22.0906 90.9995 17.7292C90.9995 13.399 88.0304 11.0002 82.9273 11.0002H74.3601V30.6264H79.587V24.4893Z" fill="white"/>
<circle cx="98.5" cy="5.5" r="3.5" fill="#EC4B6F"/>
</svg>
